<svg xmlns="http://www.w3.org/2000/svg" viewBox="0 0 960 320" font-family="Segoe UI, Arial, sans-serif">
  <rect x="0" y="0" width="960" height="320" rx="14" fill="#ffffff" stroke="#d0d7de"/>
  <text x="480" y="38" text-anchor="middle" font-size="22" font-weight="700" fill="#0d1117">Sprint Roadmap</text>
  <text x="480" y="60" text-anchor="middle" font-size="13" fill="#57606a">Architecture-first, frozen-then-implement · independently verified per step</text>

  <!-- Legend -->
  <rect x="300" y="80" width="14" height="14" rx="3" fill="#dafbe1" stroke="#4ac26b"/><text x="320" y="92" font-size="12" fill="#57606a">Verified (Closed)</text>
  <rect x="470" y="80" width="14" height="14" rx="3" fill="#fff8c5" stroke="#d4a72c"/><text x="490" y="92" font-size="12" fill="#57606a">In progress</text>
  <rect x="600" y="80" width="14" height="14" rx="3" fill="#f6f8fa" stroke="#8c959f"/><text x="620" y="92" font-size="12" fill="#57606a">Planned</text>

  <!-- Rows -->
  <g font-size="12" fill="#0d1117">
    <!-- closed 001-007 -->
    <g>
      <rect x="60" y="120" width="110" height="46" rx="8" fill="#dafbe1" stroke="#4ac26b"/><text x="115" y="140" text-anchor="middle" font-weight="700">001 Core</text><text x="115" y="157" text-anchor="middle" font-size="10.5" fill="#2da44e">✓ closed</text>
      <rect x="180" y="120" width="110" height="46" rx="8" fill="#dafbe1" stroke="#4ac26b"/><text x="235" y="140" text-anchor="middle" font-weight="700">002 World</text><text x="235" y="157" text-anchor="middle" font-size="10.5" fill="#2da44e">✓ closed</text>
      <rect x="300" y="120" width="110" height="46" rx="8" fill="#dafbe1" stroke="#4ac26b"/><text x="355" y="140" text-anchor="middle" font-weight="700">003 Entities</text><text x="355" y="157" text-anchor="middle" font-size="10.5" fill="#2da44e">✓ closed</text>
      <rect x="420" y="120" width="110" height="46" rx="8" fill="#dafbe1" stroke="#4ac26b"/><text x="475" y="140" text-anchor="middle" font-weight="700">004 Bubble</text><text x="475" y="157" text-anchor="middle" font-size="10.5" fill="#2da44e">✓ closed</text>
      <rect x="540" y="120" width="110" height="46" rx="8" fill="#dafbe1" stroke="#4ac26b"/><text x="595" y="140" text-anchor="middle" font-weight="700">005 ALife</text><text x="595" y="157" text-anchor="middle" font-size="10.5" fill="#2da44e">✓ closed</text>
      <rect x="660" y="120" width="110" height="46" rx="8" fill="#dafbe1" stroke="#4ac26b"/><text x="715" y="140" text-anchor="middle" font-weight="700">006 Network</text><text x="715" y="157" text-anchor="middle" font-size="10.5" fill="#2da44e">✓ closed</text>
      <rect x="780" y="120" width="110" height="46" rx="8" fill="#dafbe1" stroke="#4ac26b"/><text x="835" y="140" text-anchor="middle" font-weight="700">007 Player</text><text x="835" y="157" text-anchor="middle" font-size="10.5" fill="#2da44e">✓ closed</text>
    </g>
    <!-- 008 in progress + planned -->
    <g>
      <rect x="60" y="185" width="150" height="46" rx="8" fill="#fff8c5" stroke="#d4a72c"/><text x="135" y="205" text-anchor="middle" font-weight="700">008 Snapshots</text><text x="135" y="222" text-anchor="middle" font-size="10.5" fill="#9a6700">▶ step 3 / 14</text>
      <rect x="220" y="185" width="120" height="46" rx="8" fill="#f6f8fa" stroke="#8c959f"/><text x="280" y="205" text-anchor="middle" font-weight="700">009 Replication</text><text x="280" y="222" text-anchor="middle" font-size="10.5" fill="#57606a">planned</text>
      <rect x="350" y="185" width="120" height="46" rx="8" fill="#f6f8fa" stroke="#8c959f"/><text x="410" y="205" text-anchor="middle" font-weight="700">010 Prediction</text><text x="410" y="222" text-anchor="middle" font-size="10.5" fill="#57606a">planned</text>
      <rect x="480" y="185" width="150" height="46" rx="8" fill="#f6f8fa" stroke="#8c959f"/><text x="555" y="205" text-anchor="middle" font-weight="700">011–012 Persist</text><text x="555" y="222" text-anchor="middle" font-size="10.5" fill="#57606a">planned</text>
      <rect x="640" y="185" width="150" height="46" rx="8" fill="#f6f8fa" stroke="#8c959f"/><text x="715" y="205" text-anchor="middle" font-weight="700">013–014 Extend</text><text x="715" y="222" text-anchor="middle" font-size="10.5" fill="#57606a">planned</text>
      <rect x="800" y="185" width="90" height="46" rx="8" fill="#f6f8fa" stroke="#8c959f"/><text x="845" y="205" text-anchor="middle" font-weight="700">015 Diag</text><text x="845" y="222" text-anchor="middle" font-size="10.5" fill="#57606a">planned</text>
    </g>
  </g>

  <text x="480" y="280" text-anchor="middle" font-size="13" font-weight="600" fill="#0d1117">330 tests passing · GCC + MSVC · 0 warnings · no regressions</text>
</svg>
